<svg width="40" height="40" viewBox="0 0 40 40" fill="none" xmlns="http://www.w3.org/2000/svg">
<path d="M32.8375 8.13269C32.8256 8.04872 32.7847 7.97154 32.7219 7.91449C32.6592 7.85743 32.5785 7.82408 32.4937 7.82019C32.3375 7.82019 29.5851 7.75769 29.5851 7.75769C29.5851 7.75769 27.8969 6.13113 27.2711 5.50535V39.3124L37.0906 36.8749C37.0906 36.8749 32.8687 8.32019 32.8375 8.13269ZM25.0508 5.50535C24.9008 5.03218 24.7124 4.57206 24.4875 4.12957C23.6719 2.56629 22.4547 1.71863 21.0156 1.71863C20.9105 1.71498 20.8054 1.72549 20.7031 1.74988C20.6719 1.68738 20.6094 1.65613 20.5781 1.59363C19.9531 0.908474 19.1406 0.595974 18.1703 0.62488C16.2953 0.68738 14.4203 2.03113 12.9164 4.43972C11.8531 6.12879 11.0414 8.25535 10.8211 9.91316C8.66326 10.5694 7.16248 11.0389 7.13123 11.0702C6.03748 11.4139 6.00544 11.4452 5.88123 12.4764C5.78748 13.2577 2.91248 35.2749 2.91248 35.2749L26.5515 39.3749V5.13035C26.4365 5.13468 26.3217 5.14511 26.2078 5.1616C26.2078 5.1616 25.7703 5.2866 25.0508 5.50535ZM20.7351 6.85066C19.4851 7.22566 18.1078 7.66316 16.7633 8.07019C17.1383 6.59988 17.889 5.13035 18.7648 4.16394C19.1086 3.82019 19.5781 3.41316 20.1094 3.16316C20.6414 4.28582 20.7664 5.81863 20.7351 6.85066ZM18.1703 1.90926C18.5642 1.89684 18.954 1.99306 19.2969 2.18738C18.7969 2.43738 18.2961 2.84441 17.8273 3.31316C16.639 4.59597 15.732 6.59441 15.357 8.50457C14.2304 8.8491 13.1047 9.19285 12.0758 9.50535C12.7601 6.50613 15.2929 1.97176 18.1703 1.90926ZM14.5429 19.11C14.6679 21.1108 19.9531 21.5491 20.2656 26.271C20.4844 29.9928 18.2953 32.5257 15.1367 32.7139C11.3219 32.9639 9.22654 30.7124 9.22654 30.7124L10.039 27.2749C10.039 27.2749 12.1344 28.8702 13.8234 28.7452C14.9172 28.6827 15.325 27.7757 15.2929 27.1499C15.1367 24.5233 10.8211 24.6796 10.5398 20.3639C10.2898 16.7358 12.6664 13.0772 17.9203 12.7327C19.9515 12.6077 20.9851 13.1085 20.9851 13.1085L19.7969 17.6085C19.7969 17.6085 18.4523 16.9835 16.857 17.1085C14.5429 17.2655 14.5117 18.7343 14.5429 19.11ZM21.9859 6.47488C21.9859 5.53738 21.8609 4.19207 21.4226 3.06629C22.8617 3.34754 23.5492 4.94129 23.8625 5.91238C23.2995 6.06863 22.6739 6.25613 21.9859 6.47488Z" fill="#986DFF"/>
</svg>
